<svg width="149" height="32" viewBox="0 0 149 32" fill="none" xmlns="http://www.w3.org/2000/svg">
<path d="M13.8854 0.199998C17.4347 0.199998 20.2361 0.434665 22.2894 0.903999C24.3721 1.37333 25.8681 2.12133 26.7774 3.148C27.7161 4.17466 28.1854 5.568 28.1854 7.328C28.1854 9.67466 27.4814 11.4053 26.0734 12.52C24.6654 13.6347 22.4214 14.3533 19.3414 14.676C21.8641 14.8813 23.8881 15.2773 25.4134 15.864C26.9387 16.4507 28.0534 17.316 28.7574 18.46C29.4907 19.5747 29.8574 21.056 29.8574 22.904C29.8574 24.9573 29.3001 26.5707 28.1854 27.744C27.0707 28.9173 25.3401 29.7533 22.9934 30.252C20.6761 30.7507 17.5521 31 13.6214 31H0.377398V30.12L2.0054 29.768C2.4454 29.68 2.72407 29.5773 2.8414 29.46C2.98807 29.3427 3.0614 29.1227 3.0614 28.8V2.4C3.0614 2.07733 2.98807 1.85733 2.8414 1.74C2.72407 1.62267 2.4454 1.52 2.0054 1.432L0.377398 1.08V0.199998H13.8854ZM14.1934 14.104C16.0121 14.104 17.3614 13.5467 18.2414 12.432C19.1214 11.3173 19.5614 9.616 19.5614 7.328C19.5614 5.36267 19.1214 3.91067 18.2414 2.972C17.3907 2.004 16.0414 1.52 14.1934 1.52H12.0374V14.104H14.1934ZM12.0374 29.68H14.0174C18.5347 29.68 20.7934 27.4213 20.7934 22.904C20.7934 20.264 20.3241 18.3573 19.3854 17.184C18.4467 16.0107 16.7747 15.424 14.3694 15.424H12.0374V29.68ZM50.1757 12.256C50.1757 11.9333 50.1024 11.7133 49.9557 11.596C49.8384 11.4787 49.5597 11.376 49.1197 11.288L47.5797 10.936V10.144L58.2277 8.824H58.9757V28.888C58.9757 29.2107 59.0344 29.4307 59.1517 29.548C59.2984 29.6653 59.5917 29.768 60.0317 29.856L61.5717 30.208V31H52.6397C51.789 31 51.173 30.824 50.7917 30.472C50.4397 30.0907 50.2637 29.504 50.2637 28.712V28.228C49.2077 29.1373 47.873 29.9147 46.2597 30.56C44.6464 31.2053 42.857 31.528 40.8917 31.528C38.1637 31.528 36.213 30.956 35.0397 29.812C33.8664 28.668 33.2797 26.952 33.2797 24.664V12.256C33.2797 11.9333 33.2064 11.7133 33.0597 11.596C32.9424 11.4787 32.6637 11.376 32.2237 11.288L30.6837 10.936V10.144L41.3317 8.824H42.0797V25.456C42.0797 26.776 42.285 27.7147 42.6957 28.272C43.1357 28.8293 43.8544 29.108 44.8517 29.108C46.6117 29.108 48.3864 28.3747 50.1757 26.908V12.256ZM71.8958 19.736C71.9252 22.992 72.4385 25.4707 73.4358 27.172C74.4625 28.8733 76.3692 29.724 79.1558 29.724C80.5345 29.724 81.7518 29.5187 82.8078 29.108C83.8932 28.6973 85.0078 28.1107 86.1518 27.348L86.7238 28.184C83.9958 30.4133 80.3878 31.528 75.8998 31.528C71.8518 31.528 68.6545 30.56 66.3078 28.624C63.9905 26.6587 62.8318 23.7987 62.8318 20.044C62.8318 16.4947 64.0198 13.7813 66.3958 11.904C68.7718 10.0267 72.1012 9.088 76.3838 9.088C78.8185 9.088 80.8718 9.46933 82.5438 10.232C84.2158 10.9947 85.4478 12.0213 86.2398 13.312C87.0612 14.5733 87.4718 15.9813 87.4718 17.536C87.4718 18.328 87.3985 19.0613 87.2518 19.736H71.8958ZM76.1198 10.144C74.5065 10.144 73.4065 10.8187 72.8198 12.168C72.2332 13.5173 71.9252 15.6587 71.8958 18.592H79.2878V15.292C79.2878 13.5027 79.0678 12.1973 78.6278 11.376C78.2172 10.5547 77.3812 10.144 76.1198 10.144ZM117.029 28.888C117.029 29.2107 117.087 29.4307 117.205 29.548C117.351 29.6653 117.645 29.768 118.085 29.856L119.625 30.208V31H110.473C109.681 31 109.109 30.7947 108.757 30.384C108.405 29.9733 108.229 29.3573 108.229 28.536V15.16C108.229 13.84 108.009 12.9013 107.569 12.344C107.158 11.7867 106.454 11.508 105.457 11.508C103.697 11.508 101.893 12.2413 100.045 13.708V28.888C100.045 29.2107 100.103 29.4453 100.221 29.592C100.367 29.7093 100.646 29.812 101.057 29.9L102.553 30.208V31H88.6488V30.208L90.1888 29.856C90.6288 29.768 90.9074 29.6653 91.0248 29.548C91.1714 29.4307 91.2448 29.2107 91.2448 28.888V12.256C91.2448 11.9333 91.1714 11.7133 91.0248 11.596C90.9074 11.4787 90.6288 11.376 90.1888 11.288L88.6488 10.936V10.144L99.2088 8.824H99.9568V12.388C101.071 11.4787 102.435 10.7013 104.049 10.056C105.662 9.41067 107.451 9.088 109.417 9.088C112.145 9.088 114.095 9.66 115.269 10.804C116.442 11.948 117.029 13.664 117.029 15.952V28.888ZM148.249 20.308C148.249 24.092 147.061 26.908 144.685 28.756C142.338 30.604 138.95 31.528 134.521 31.528C130.091 31.528 126.689 30.604 124.313 28.756C121.966 26.908 120.793 24.092 120.793 20.308C120.793 16.524 121.966 13.708 124.313 11.86C126.689 10.012 130.091 9.088 134.521 9.088C138.95 9.088 142.338 10.012 144.685 11.86C147.061 13.708 148.249 16.524 148.249 20.308ZM129.945 20.308C129.945 22.9187 130.062 24.928 130.297 26.336C130.561 27.744 131.015 28.7707 131.661 29.416C132.306 30.0613 133.259 30.384 134.521 30.384C135.782 30.384 136.735 30.0613 137.381 29.416C138.026 28.7707 138.466 27.744 138.701 26.336C138.965 24.928 139.097 22.9187 139.097 20.308C139.097 17.6973 138.965 15.688 138.701 14.28C138.466 12.872 138.026 11.8453 137.381 11.2C136.735 10.5547 135.782 10.232 134.521 10.232C133.259 10.232 132.306 10.5547 131.661 11.2C131.015 11.8453 130.561 12.872 130.297 14.28C130.062 15.688 129.945 17.6973 129.945 20.308Z" fill="#E23125"/>
</svg>
