<svg width="100" height="37" viewBox="0 0 100 37" fill="none" xmlns="http://www.w3.org/2000/svg">
<path d="M17.0716 1.344C18.9916 1.344 20.6236 1.616 21.9676 2.16C23.3116 2.704 24.6236 3.472 25.9036 4.464C26.2556 4.752 26.5596 4.896 26.8156 4.896C27.4556 4.896 27.8716 3.936 28.0636 2.016H29.1676C29.0396 4.192 28.9756 8.064 28.9756 13.632H27.8716C27.5836 11.264 27.1996 9.456 26.7196 8.208C26.2396 6.96 25.4236 5.872 24.2716 4.944C23.4716 4.176 22.5436 3.6 21.4876 3.216C20.4316 2.8 19.3276 2.592 18.1756 2.592C14.9436 2.592 12.5436 4.176 10.9756 7.344C9.40763 10.48 8.62363 14.4 8.62363 19.104C8.62363 23.776 9.43963 27.68 11.0716 30.816C12.7036 33.952 15.1356 35.52 18.3676 35.52C19.4556 35.52 20.5276 35.328 21.5836 34.944C22.6716 34.528 23.5836 33.936 24.3196 33.168C25.5036 32.272 26.3196 31.152 26.7676 29.808C27.2476 28.464 27.6156 26.496 27.8716 23.904H28.9756C28.9756 29.696 29.0396 33.728 29.1676 36H28.0636C27.9676 34.976 27.8236 34.256 27.6316 33.84C27.4716 33.392 27.2316 33.168 26.9116 33.168C26.6556 33.168 26.3196 33.296 25.9036 33.552C24.4636 34.576 23.0876 35.36 21.7756 35.904C20.4636 36.416 18.8796 36.672 17.0236 36.672C13.6316 36.672 10.6556 35.984 8.09563 34.608C5.56763 33.232 3.59963 31.248 2.19163 28.656C0.783625 26.032 0.0796251 22.912 0.0796251 19.296C0.0796251 15.776 0.799625 12.656 2.23963 9.936C3.67963 7.216 5.67963 5.104 8.23963 3.6C10.8316 2.096 13.7756 1.344 17.0716 1.344ZM58.1314 21.888C58.1314 22.56 58.0514 23.296 57.8914 24.096H39.3154C39.4114 26.112 39.9234 27.568 40.8514 28.464C41.7794 29.328 42.9634 29.76 44.4034 29.76C45.6194 29.76 46.6274 29.456 47.4274 28.848C48.2274 28.24 48.7554 27.456 49.0114 26.496H57.6994C57.3474 28.384 56.5794 30.08 55.3954 31.584C54.2114 33.056 52.7074 34.224 50.8834 35.088C49.0594 35.92 47.0274 36.336 44.7874 36.336C42.1634 36.336 39.8274 35.792 37.7794 34.704C35.7634 33.584 34.1794 31.984 33.0274 29.904C31.8754 27.824 31.2994 25.392 31.2994 22.608C31.2994 19.792 31.8594 17.36 32.9794 15.312C34.1314 13.232 35.7314 11.648 37.7794 10.56C39.8274 9.44 42.1634 8.88 44.7874 8.88C47.4434 8.88 49.7794 9.424 51.7954 10.512C53.8114 11.6 55.3634 13.136 56.4514 15.12C57.5714 17.072 58.1314 19.328 58.1314 21.888ZM49.8274 20.64C49.8594 18.88 49.3794 17.568 48.3874 16.704C47.4274 15.808 46.2274 15.36 44.7874 15.36C43.2834 15.36 42.0354 15.808 41.0434 16.704C40.0514 17.6 39.4914 18.912 39.3634 20.64H49.8274ZM68.6181 0.48V36H60.4101V0.48H68.6181ZM82.4611 8.88C84.5091 8.88 86.2691 9.344 87.7411 10.272C89.2131 11.2 90.3011 12.464 91.0051 14.064V9.216H99.1651V36H91.0051V31.152C90.3011 32.752 89.2131 34.016 87.7411 34.944C86.2691 35.872 84.5091 36.336 82.4611 36.336C80.2531 36.336 78.2691 35.792 76.5091 34.704C74.7811 33.584 73.4051 31.984 72.3811 29.904C71.3891 27.824 70.8931 25.392 70.8931 22.608C70.8931 19.792 71.3891 17.36 72.3811 15.312C73.4051 13.232 74.7811 11.648 76.5091 10.56C78.2691 9.44 80.2531 8.88 82.4611 8.88ZM85.1011 16.08C83.3411 16.08 81.9171 16.656 80.8291 17.808C79.7731 18.96 79.2451 20.56 79.2451 22.608C79.2451 24.656 79.7731 26.256 80.8291 27.408C81.9171 28.56 83.3411 29.136 85.1011 29.136C86.8291 29.136 88.2371 28.544 89.3251 27.36C90.4451 26.176 91.0051 24.592 91.0051 22.608C91.0051 20.592 90.4451 19.008 89.3251 17.856C88.2371 16.672 86.8291 16.08 85.1011 16.08Z" fill="#E23125"/>
</svg>
