<svg width="82" height="76" viewBox="0 0 82 76" fill="none" xmlns="http://www.w3.org/2000/svg">
<path fill-rule="evenodd" clip-rule="evenodd" d="M13.4309 1.82986C13.8892 1.52162 14.0108 0.900243 13.7026 0.44198C13.3943 -0.0162831 12.773 -0.137899 12.3147 0.170344C6.93679 3.7877 3.12633 8.70595 1.34093 13.7729C-0.444491 18.84 -0.219383 24.1241 2.60973 28.3301C3.89077 30.2346 5.56909 31.7267 7.52151 32.8134C4.59907 42.2159 5.69661 52.415 11.4625 60.9871C22.1573 76.887 44.8912 80.1254 62.1791 68.4969C75.8372 59.3101 82.168 43.509 78.9754 29.4267C79.8334 29.0211 80.5705 28.3418 81.0419 27.4348C82.188 25.2295 81.3294 22.5127 79.1241 21.3667C76.9189 20.2206 74.2021 21.0792 73.056 23.2845C71.91 25.4897 72.7686 28.2065 74.9738 29.3526C75.6299 29.6935 76.3312 29.8571 77.023 29.8605C80.0222 43.0744 74.0959 58.071 61.0629 66.8374C44.5391 77.9519 23.1026 74.7089 13.122 59.8709C7.79645 51.9534 6.70014 42.482 9.34607 33.6808C14.1599 35.6116 20.2136 35.4345 26.0352 33.2342L26.0463 33.262C26.4721 33.0917 26.9008 32.9073 27.3313 32.709C27.6935 32.5522 28.0543 32.3875 28.4134 32.215L28.4011 32.1894C30.1332 31.3047 31.8804 30.2006 33.5745 28.8921C37.4413 25.9051 40.3618 22.3687 41.9335 19.0243C43.4799 15.7336 43.8356 12.3365 41.9951 9.95389C40.1546 7.57124 36.7779 7.05726 33.2033 7.72229C30.1527 8.28984 26.7309 9.74342 23.4229 11.9633L23.4222 11.9622C16.0997 16.8876 10.9161 23.5831 8.18565 30.8739C6.61472 29.9436 5.28145 28.7187 4.26925 27.2139C1.87388 23.6527 1.59847 19.0601 3.22725 14.4376C4.85604 9.81509 8.37449 5.231 13.4309 1.82986ZM32.3518 27.3093C30.4202 28.8014 28.4278 30.002 26.4945 30.8924C20.5682 33.4523 14.5541 33.6545 9.98376 31.7687C12.3183 25.4049 16.6399 19.4873 22.7574 14.8885L22.7667 14.9005C26.4354 12.0665 30.308 10.2953 33.5691 9.68855C36.8887 9.07096 39.2683 9.69548 40.4123 11.1765C41.5563 12.6575 41.5595 15.1177 40.1234 18.1737C38.7126 21.1758 36.0206 24.4753 32.3518 27.3093Z" fill="#E23125"/>
</svg>
