<svg width="26" height="25" viewBox="0 0 26 25" fill="none" xmlns="http://www.w3.org/2000/svg">
<path d="M24.1282 7.86442C23.8176 7.15037 23.4243 6.476 22.9688 5.82145C22.5134 5.18674 22.0165 4.59169 21.4368 4.05616C20.8779 3.52062 20.2568 3.02475 19.5736 2.58838C18.9111 2.15202 18.1866 1.77516 17.4413 1.47764C16.6753 1.18012 15.8886 0.942107 15.0812 0.783429C14.2531 0.624751 13.4043 0.54541 12.5555 0.54541C11.7067 0.54541 10.8579 0.624751 10.0298 0.783429C9.22238 0.942107 8.43568 1.18012 7.66969 1.47764C6.9244 1.77516 6.22053 2.15202 5.53735 2.58838C4.87487 3.02475 4.25379 3.50078 3.67412 4.05616C3.11515 4.59169 2.59759 5.18674 2.14213 5.82145C1.68668 6.45616 1.29334 7.15037 0.982798 7.86442C0.651558 8.59831 0.423831 9.35202 0.258211 10.1256C0.0925907 10.919 0.00976562 11.7322 0.00976562 12.5454C0.00976562 13.3586 0.0925907 14.1719 0.258211 14.9652C0.423831 15.7388 0.67226 16.4925 0.982798 17.2264C1.29334 17.9405 1.68668 18.6347 2.14213 19.2694C2.59759 19.9041 3.09445 20.4991 3.67412 21.0347C4.23309 21.5702 4.85416 22.0661 5.53735 22.5024C6.19982 22.9388 6.9244 23.3157 7.66969 23.6132C8.43568 23.9305 9.22238 24.1487 10.0298 24.3074C10.8579 24.4661 11.7067 24.5454 12.5555 24.5454C13.4043 24.5454 14.2531 24.4661 15.0812 24.3074C15.8886 24.1487 16.6753 23.9107 17.4413 23.6132C18.1866 23.3157 18.8904 22.9388 19.5736 22.5024C20.2361 22.0661 20.8572 21.59 21.4368 21.0347C21.9958 20.4991 22.5134 19.9041 22.9688 19.2694C23.4243 18.6347 23.8176 17.9405 24.1282 17.2264C24.4387 16.5124 24.6871 15.7388 24.8528 14.9652C25.0184 14.1719 25.1012 13.3586 25.1012 12.5454C25.1012 11.7322 25.0184 10.919 24.8528 10.1256C24.7078 9.35202 24.4594 8.59831 24.1282 7.86442ZM12.5969 2.29086C15.3089 2.29086 17.7725 3.26277 19.6564 4.84955C19.6357 4.88921 18.1037 7.1107 14.0668 8.55864C12.2449 5.34541 10.2368 2.78673 10.0712 2.58838C10.8786 2.39004 11.7274 2.29086 12.5969 2.29086ZM10.0298 2.58838C10.0298 2.58838 10.0091 2.58838 9.98838 2.58838C10.0091 2.58838 10.0298 2.58838 10.0298 2.58838ZM8.04234 3.26277C8.18726 3.44128 10.154 6.01979 12.0172 9.17351C6.88299 10.4826 2.43197 10.4231 2.14213 10.4231C2.82531 7.24954 5.04048 4.61153 8.04234 3.26277ZM4.64713 19.3884C2.94952 17.5636 1.91441 15.1636 1.91441 12.5454C1.91441 12.4462 1.91441 12.3272 1.91441 12.2281C2.10073 12.2281 7.37987 12.3471 12.8867 10.7603C13.1973 11.3355 13.4871 11.9107 13.7562 12.5057C13.6113 12.5454 13.4664 12.5851 13.3422 12.6248C7.56618 14.4099 4.62643 19.3884 4.64713 19.3884C4.64713 19.3884 4.62643 19.3884 4.64713 19.3884ZM12.5969 22.7801C10.0712 22.7801 7.7525 21.9471 5.90998 20.5388C5.86857 20.519 5.82718 20.4793 5.76507 20.4396C5.82718 20.4793 5.86857 20.519 5.90998 20.5388C5.97208 20.5785 6.01349 20.6181 6.01349 20.6181C6.01349 20.6181 8.06303 16.3338 14.398 14.2115C14.4187 14.2115 14.4394 14.1917 14.4601 14.1917C15.9714 17.9404 16.5925 21.0743 16.7374 21.9669C15.4952 22.5024 14.0875 22.7801 12.5969 22.7801ZM18.5799 21.0347C18.4764 20.4198 17.8967 17.4049 16.4889 13.7157C19.9463 13.1801 22.9274 14.0925 23.1552 14.1719C22.679 17.0281 20.9814 19.4876 18.5799 21.0347ZM15.8472 12.109C15.7644 11.9305 15.7023 11.752 15.6194 11.5735C15.3917 11.0776 15.164 10.5818 14.9156 10.0859C19.1389 8.43963 20.8572 6.05946 20.8779 6.03963C22.3685 7.78508 23.2794 10.0066 23.3208 12.4462C23.1344 12.4066 19.5115 11.6528 15.8472 12.109Z" fill="#E23125"/>
</svg>
