<svg width="95" height="79" viewBox="0 0 95 79" fill="none" xmlns="http://www.w3.org/2000/svg">
<path fill-rule="evenodd" clip-rule="evenodd" d="M0.625 18.04C0.625 18.5923 1.07272 19.04 1.625 19.04C2.17728 19.04 2.625 18.5923 2.625 18.04V3.08L16.8708 16.9083C9.1869 26.0152 10.0156 39.6561 18.8882 47.7537L53.125 79L87.3618 47.7537C96.4419 39.4667 97.0975 25.3741 88.8261 16.2769C80.5547 7.17971 66.4886 6.52288 57.4085 14.8098L53.125 18.7192L48.8415 14.8098C40.0512 6.78732 26.588 7.14689 18.2331 15.4318L4.385 2H18.675C19.2273 2 19.675 1.55228 19.675 1C19.675 0.447715 19.2273 0 18.675 0H0.625V18.04ZM33.5857 30.3303C34.084 29.4928 34.2916 28.5141 34.176 27.5464C34.0605 26.5787 33.6284 25.6763 32.9469 24.9797C32.2654 24.283 31.3728 23.8311 30.4079 23.6942C29.443 23.5573 28.46 23.7432 27.6116 24.2229C26.7633 24.7026 26.0973 25.4492 25.7172 26.3465C25.3371 27.2439 25.2643 28.2418 25.51 29.1848C25.7557 30.1279 26.3062 30.9633 27.0759 31.5611C27.8455 32.1589 28.7912 32.4856 29.7657 32.4903C30.6155 32.4878 31.446 32.2376 32.1557 31.7703L47.8354 47.0007C48.2333 47.3871 48.8691 47.378 49.2558 46.9803C49.6424 46.5826 49.6336 45.9468 49.2361 45.56L33.5857 30.3303ZM86.0136 46.2764L53.125 76.2923L20.2364 46.2764C11.9714 38.7333 11.3742 25.9036 18.9037 17.6223C26.4312 9.34326 39.2304 8.74594 47.4933 16.2871L51.7768 20.1964C52.5405 20.8934 53.7095 20.8934 54.4732 20.1964L58.7567 16.2871C67.0196 8.74595 79.8188 9.34326 87.3463 17.6224C94.8758 25.9036 94.2786 38.7333 86.0136 46.2764Z" fill="#E23125"/>
</svg>
