<svg width="25" height="25" viewBox="0 0 25 25" fill="none" xmlns="http://www.w3.org/2000/svg">
<path d="M18.4229 0.272705H6.77391C3.20229 0.272705 0.290039 3.24736 0.290039 6.87898V18.2118C0.290039 21.8435 3.2206 24.8181 6.77391 24.8181H18.4229C21.9945 24.8181 24.9067 21.8435 24.9067 18.2118V6.87898C24.9067 3.24736 21.9945 0.272705 18.4229 0.272705ZM22.7088 18.0476C22.7088 20.566 20.6941 22.6282 18.2214 22.6282H6.9937C4.52104 22.6282 2.50628 20.566 2.50628 18.0476V7.04322C2.50628 4.52481 4.52104 2.46263 6.9937 2.46263H18.2214C20.6941 2.46263 22.7088 4.52481 22.7088 7.04322V18.0476Z" fill="#E23125"/>
<path d="M12.598 6.24048C9.17294 6.24048 6.40723 9.06907 6.40723 12.5364C6.40723 16.0219 9.17294 18.8323 12.598 18.8323C16.0231 18.8323 18.7888 16.0037 18.7888 12.5364C18.7888 9.06907 16.0231 6.24048 12.598 6.24048ZM12.598 16.6241C10.4001 16.6241 8.60514 14.7992 8.60514 12.5546C8.60514 10.31 10.4001 8.4851 12.598 8.4851C14.7959 8.4851 16.5909 10.31 16.5909 12.5546C16.5909 14.7992 14.7959 16.6241 12.598 16.6241Z" fill="#E23125"/>
<path d="M19.1196 7.33521C19.8884 7.33521 20.5116 6.69796 20.5116 5.91187C20.5116 5.12578 19.8884 4.48853 19.1196 4.48853C18.3508 4.48853 17.7275 5.12578 17.7275 5.91187C17.7275 6.69796 18.3508 7.33521 19.1196 7.33521Z" fill="#E23125"/>
</svg>
