<svg width="27" height="26" viewBox="0 0 27 26" fill="none" xmlns="http://www.w3.org/2000/svg">
<path d="M0.332875 8.161H5.95856V25.0905H0.332875V8.161ZM3.18337 0.000244141C1.25794 0.000244141 0 1.26431 0 2.92343C0 4.54843 1.22112 5.84925 3.10975 5.84925H3.14563C5.10787 5.84925 6.32987 4.54837 6.32987 2.92343C6.29306 1.26431 5.10794 0.000244141 3.18337 0.000244141ZM19.7712 7.76331C16.785 7.76331 15.4472 9.40581 14.7009 10.5577V8.161H9.0735C9.148 9.74919 9.0735 25.0905 9.0735 25.0905H14.7009V15.6359C14.7009 15.1295 14.7377 14.625 14.8857 14.2622C15.2932 13.2514 16.2191 12.2046 17.7721 12.2046C19.8097 12.2046 20.6235 13.7578 20.6235 16.0326V25.0904H26.25V15.3828C26.25 10.1828 23.4749 7.76331 19.7712 7.76331Z" fill="#E23125"/>
</svg>
