<svg width="106" height="28" viewBox="0 0 106 28" fill="none" xmlns="http://www.w3.org/2000/svg">
<path d="M8.89397 27.2496V17.8258L0 0.756933H5.48777L11.354 12.9814L17.1824 0.756933H22.5945L13.7383 17.8258V27.2496H8.89397Z" fill="#E23125"/>
<path d="M28.0696 27.7038C26.2529 27.7038 24.6129 27.2874 23.1495 26.4548C21.7113 25.6222 20.5633 24.4742 19.7055 23.0108C18.8728 21.5221 18.4565 19.8064 18.4565 17.8636C18.4565 15.9208 18.8855 14.2177 19.7433 12.7543C20.6012 11.2657 21.7492 10.1051 23.1874 9.27243C24.6508 8.43981 26.2908 8.02349 28.1074 8.02349C29.8988 8.02349 31.5136 8.43981 32.9518 9.27243C34.4152 10.1051 35.5632 11.2657 36.3958 12.7543C37.2537 14.2177 37.6826 15.9208 37.6826 17.8636C37.6826 19.8064 37.2537 21.5221 36.3958 23.0108C35.5632 24.4742 34.4152 25.6222 32.9518 26.4548C31.4884 27.2874 29.861 27.7038 28.0696 27.7038ZM28.0696 23.5028C29.3311 23.5028 30.4287 23.036 31.3622 22.1025C32.2958 21.1437 32.7626 19.7307 32.7626 17.8636C32.7626 15.9965 32.2958 14.5962 31.3622 13.6626C30.4287 12.7039 29.3437 12.2245 28.1074 12.2245C26.8206 12.2245 25.7105 12.7039 24.7769 13.6626C23.8686 14.5962 23.4144 15.9965 23.4144 17.8636C23.4144 19.7307 23.8686 21.1437 24.7769 22.1025C25.7105 23.036 26.808 23.5028 28.0696 23.5028Z" fill="#E23125"/>
<path d="M46.6881 27.7038C44.3416 27.7038 42.5249 26.9721 41.2381 25.5087C39.9766 24.0453 39.3458 21.9006 39.3458 19.0747V8.47765H44.1523V18.6206C44.1523 20.2354 44.4803 21.4717 45.1363 22.3295C45.7924 23.1874 46.8268 23.6163 48.2398 23.6163C48.4567 23.6163 48.6673 23.6037 48.8715 23.5785C49.9268 23.4482 50.8137 22.9814 51.5324 22.1781C52.0028 21.6675 52.9767 20.2647 53.5196 19.2255C54.2294 17.8668 52.2466 22.1058 52.2466 21.3039L57.7014 11.7286L56.6373 17.1471L53.1182 23.9986C52.5378 25.1088 51.6207 26.0637 50.5106 26.7197C50.3078 26.8424 50.0984 26.9535 49.8824 27.0532C48.9427 27.4869 47.8779 27.7038 46.6881 27.7038Z" fill="#E23125"/>
<path d="M53.1182 23.9986L52.2466 21.3039L57.7014 11.7286C58.0878 10.9894 58.6179 10.3191 59.2493 9.75996C59.5662 9.47934 59.9086 9.22673 60.2712 9.00751C61.3813 8.3515 62.6808 8.02349 64.1694 8.02349C66.4907 8.02349 68.2947 8.7552 69.5815 10.2186C70.8682 11.682 71.5116 13.8267 71.5116 16.6525V27.2496H66.6673V17.1067C66.6673 15.4919 66.3393 14.2556 65.6833 13.3977C65.0272 12.5399 64.0054 12.1109 62.6177 12.1109C61.2552 12.1109 60.1324 12.5903 59.2493 13.5491C58.3915 14.5079 57.7014 15.063 56.6373 17.1471L53.1182 23.9986Z" fill="#E23125"/>
<path d="M75.4498 5.56346C74.5667 5.56346 73.835 5.29853 73.2547 4.76868C72.6996 4.23883 72.422 3.5702 72.422 2.76281C72.422 1.95541 72.6996 1.2994 73.2547 0.794779C73.835 0.264926 74.4601 0 75.3431 0C76.2262 0 77.0519 0.264926 77.607 0.794779C78.1873 1.2994 78.4775 1.95541 78.4775 2.76281C78.4775 3.5702 78.1873 4.23883 77.607 4.76868C77.0519 5.29853 76.3328 5.56346 75.4498 5.56346ZM73.0276 27.2496V8.47765H77.8719V27.2496H73.0276Z" fill="#E23125"/>
<path d="M89.7596 27.7038C87.8421 27.7038 86.1516 27.2874 84.6882 26.4548C83.2248 25.6222 82.0641 24.4616 81.2063 22.9729C80.3737 21.4843 79.9574 19.7812 79.9574 17.8636C79.9574 15.9461 80.3737 14.243 81.2063 12.7543C82.0641 11.2657 83.2248 10.1051 84.6882 9.27243C86.1516 8.43981 87.8421 8.02349 89.7596 8.02349C92.1566 8.02349 94.1751 8.65427 95.8151 9.91583C97.4551 11.1522 98.5022 12.8679 98.9564 15.063H93.8471C93.5948 14.1547 93.0901 13.4482 92.3332 12.9436C91.6015 12.4137 90.731 12.1488 89.7218 12.1488C88.3845 12.1488 87.2491 12.6534 86.3156 13.6626C85.382 14.6719 84.9153 16.0722 84.9153 17.8636C84.9153 19.655 85.382 21.0554 86.3156 22.0646C87.2491 23.0739 88.3845 23.5785 89.7218 23.5785C90.731 23.5785 91.6015 23.3262 92.3332 22.8215C93.0901 22.3169 93.5948 21.5978 93.8471 20.6643H98.9564C98.5022 22.7837 97.4551 24.4868 95.8151 25.7736C94.1751 27.0604 92.1566 27.7038 89.7596 27.7038Z" fill="#E23125"/>
<path d="M102.972 27.5145C102.089 27.5145 101.357 27.237 100.777 26.6819C100.222 26.1268 99.9445 25.4582 99.9445 24.676C99.9445 23.8686 100.222 23.1874 100.777 22.6323C101.357 22.0772 102.089 21.7997 102.972 21.7997C103.855 21.7997 104.574 22.0772 105.13 22.6323C105.71 23.1874 106 23.8686 106 24.676C106 25.4582 105.71 26.1268 105.13 26.6819C104.574 27.237 103.855 27.5145 102.972 27.5145Z" fill="#E23125"/>
</svg>
