<svg width="96" height="46" viewBox="0 0 96 46" fill="none" xmlns="http://www.w3.org/2000/svg">
<path d="M10.9319 34.704C9.78793 34.704 8.5266 34.5133 7.14793 34.132C5.7986 33.78 4.5666 33.252 3.45193 32.548V34.396H0.0639298L0.59193 24.1H3.49593C3.75993 26.564 4.59593 28.4267 6.00393 29.688C7.44126 30.92 9.1866 31.536 11.2399 31.536C12.7946 31.536 14.0853 31.1253 15.1119 30.304C16.1679 29.4827 16.7106 28.5147 16.7399 27.4C16.7986 26.3733 16.4906 25.5227 15.8159 24.848C15.1413 24.144 14.2759 23.5573 13.2199 23.088C12.1639 22.5893 11.0933 22.12 10.0079 21.68C8.15993 20.9173 6.5026 20.0667 5.03593 19.128C3.56926 18.1893 2.43993 17.06 1.64793 15.74C0.85593 14.42 0.50393 12.8067 0.59193 10.9C0.650596 9.99066 0.870596 9.052 1.25193 8.084C1.6626 7.08667 2.2786 6.17733 3.09993 5.356C3.9506 4.50533 5.0506 3.816 6.39993 3.288C7.74926 2.76 9.39193 2.496 11.3279 2.496C12.5013 2.496 13.7773 2.672 15.1559 3.024C16.5346 3.376 17.6786 3.904 18.5879 4.608V2.804H21.9759L21.4479 13.056H18.5439C18.2799 10.6213 17.5173 8.77333 16.2559 7.512C15.0239 6.25066 13.3813 5.63466 11.3279 5.664C10.0666 5.664 8.93726 6.016 7.93993 6.72C6.97193 7.424 6.4586 8.33333 6.39993 9.448C6.34126 10.7973 6.8546 11.9267 7.93993 12.836C9.0546 13.7453 10.7999 14.684 13.1759 15.652C14.2613 16.092 15.3759 16.6053 16.5199 17.192C17.6639 17.7787 18.7053 18.468 19.6439 19.26C20.6119 20.052 21.3746 20.9907 21.9319 22.076C22.5186 23.132 22.7826 24.3787 22.7239 25.816C22.6359 27.5467 22.0786 29.0867 21.0519 30.436C20.0546 31.7853 18.6906 32.8413 16.9599 33.604C15.2293 34.3373 13.2199 34.704 10.9319 34.704ZM34.7867 11.516C36.4294 11.516 37.9107 11.8973 39.2307 12.66C40.5801 13.4227 41.6507 14.5373 42.4427 16.004C43.2347 17.4707 43.6307 19.2453 43.6307 21.328C43.6307 23.6453 43.1761 25.816 42.2667 27.84C41.3867 29.8347 40.1254 31.448 38.4827 32.68C36.8401 33.8827 34.8747 34.484 32.5867 34.484C30.6214 34.484 28.9787 34.044 27.6587 33.164C26.3387 32.2547 25.3561 31.0373 24.7107 29.512C24.0654 27.9867 23.7427 26.3147 23.7427 24.496C23.7427 22.1493 24.1827 19.9933 25.0627 18.028C25.9721 16.0627 27.2481 14.4933 28.8907 13.32C30.5627 12.1173 32.5281 11.516 34.7867 11.516ZM34.1267 14.42C33.2467 14.3907 32.4694 14.7867 31.7947 15.608C31.1494 16.4 30.6361 17.4707 30.2547 18.82C29.9027 20.1693 29.7267 21.6507 29.7267 23.264C29.7267 24.144 29.7707 25.068 29.8587 26.036C29.9761 27.004 30.1667 27.9133 30.4307 28.764C30.7241 29.5853 31.0907 30.26 31.5307 30.788C32.0001 31.316 32.5867 31.58 33.2907 31.58C34.0534 31.58 34.6987 31.2867 35.2267 30.7C35.7547 30.1133 36.1801 29.3653 36.5027 28.456C36.8547 27.5173 37.1041 26.5347 37.2507 25.508C37.4267 24.4813 37.5294 23.5133 37.5587 22.604C37.5881 21.812 37.5587 20.9467 37.4707 20.008C37.3827 19.0693 37.2214 18.1747 36.9867 17.324C36.7521 16.4733 36.4001 15.784 35.9307 15.256C35.4614 14.6987 34.8601 14.42 34.1267 14.42ZM57.6313 0.559998C58.9513 0.559998 59.9633 0.867998 60.6673 1.484C61.4006 2.1 61.7673 2.87733 61.7673 3.816C61.7673 4.13867 61.6793 4.52 61.5033 4.96C61.3273 5.37067 61.0339 5.73733 60.6233 6.06C60.2419 6.35333 59.7139 6.5 59.0393 6.5C58.3939 6.47067 57.8366 6.20667 57.3673 5.708C56.9273 5.18 56.7659 4.53467 56.8833 3.772C56.7659 3.71333 56.5753 3.684 56.3113 3.684C55.8126 3.684 55.4019 3.948 55.0793 4.476C54.7566 5.004 54.4926 5.69333 54.2873 6.544C54.1113 7.39467 53.9646 8.304 53.8473 9.272C53.7593 10.24 53.6713 11.1493 53.5833 12H59.2593L58.9513 15.036L53.4073 15.124C53.3193 16.3853 53.2166 17.8667 53.0993 19.568C52.9819 21.24 52.8499 23 52.7033 24.848C52.5566 26.6667 52.4099 28.4267 52.2633 30.128C52.1166 31.8 51.9699 33.252 51.8233 34.484C51.5593 36.7427 51.0606 38.7373 50.3273 40.468C49.5939 42.1987 48.5673 43.5333 47.2473 44.472C45.9273 45.44 44.2699 45.924 42.2753 45.924C40.9259 45.924 39.8993 45.6307 39.1953 45.044C38.4619 44.4867 38.0953 43.724 38.0953 42.756C38.0953 42.404 38.1833 42.008 38.3593 41.568C38.5353 41.128 38.8286 40.7467 39.2393 40.424C39.6499 40.1013 40.1779 39.9547 40.8233 39.984C41.4979 40.0133 42.0553 40.2773 42.4953 40.776C42.9353 41.304 43.0966 41.9493 42.9793 42.712C43.1553 42.7707 43.3459 42.8 43.5513 42.8C44.0499 42.8 44.4606 42.536 44.7833 42.008C45.1059 41.48 45.3553 40.7907 45.5313 39.94C45.7366 39.0893 45.8833 38.18 45.9713 37.212C46.0886 36.244 46.1913 35.3347 46.2793 34.484C46.3966 33.2227 46.5139 31.756 46.6313 30.084C46.7486 28.3827 46.8659 26.6227 46.9833 24.804C47.1299 22.956 47.2619 21.196 47.3793 19.524C47.5259 17.852 47.6433 16.4 47.7313 15.168L44.2113 15.212L44.6073 12H48.1273C48.3913 9.74133 48.8753 7.76133 49.5793 6.06C50.3126 4.32933 51.3393 2.98 52.6593 2.012C53.9793 1.044 55.6366 0.559998 57.6313 0.559998ZM68.3146 5.356L67.4346 12H72.9346L72.6706 15.036L67.1706 15.124C67.0533 16.18 66.9213 17.324 66.7746 18.556C66.628 19.7587 66.496 20.9467 66.3786 22.12C66.2906 23.264 66.2026 24.3053 66.1146 25.244C66.056 26.1533 66.0266 26.8573 66.0266 27.356C66.0266 27.7373 66.0706 28.1627 66.1586 28.632C66.2466 29.072 66.4373 29.4533 66.7306 29.776C67.024 30.0987 67.4933 30.26 68.1386 30.26C68.3733 30.26 68.7106 30.2013 69.1506 30.084C69.62 29.9373 70.1186 29.6733 70.6466 29.292C71.1746 28.9107 71.6586 28.3093 72.0986 27.488L74.3426 28.896C73.3453 30.7733 72.128 32.1813 70.6906 33.12C69.2533 34.0293 67.7133 34.484 66.0706 34.484C64.4573 34.484 63.24 34.1467 62.4186 33.472C61.6266 32.7973 61.0986 31.9173 60.8346 30.832C60.5706 29.7173 60.4533 28.5587 60.4826 27.356C60.5413 26.3587 60.6146 25.1853 60.7026 23.836C60.7906 22.4573 60.908 21.02 61.0546 19.524C61.2013 17.9987 61.348 16.5467 61.4946 15.168L57.9746 15.212L58.3706 12C60.5413 12 62.14 11.428 63.1666 10.284C64.2226 9.14 64.956 7.49733 65.3666 5.356H68.3146ZM77.954 45.924C76.6047 45.924 75.5633 45.6013 74.83 44.956C74.126 44.3107 73.774 43.4893 73.774 42.492C73.774 41.5533 74.0673 40.8053 74.654 40.248C75.27 39.6907 75.9153 39.412 76.59 39.412C78.1447 39.412 79.0393 40.204 79.274 41.788C79.3327 41.8173 79.406 41.832 79.494 41.832C79.582 41.832 79.6553 41.832 79.714 41.832C80.2127 41.832 80.726 41.6413 81.254 41.26C81.8113 40.8787 82.3393 40.4093 82.838 39.852C83.3367 39.2947 83.7767 38.7227 84.158 38.136C84.5687 37.5787 84.862 37.0947 85.038 36.684C84.8327 35.276 84.4953 33.7653 84.026 32.152C83.5567 30.5093 83.014 28.852 82.398 27.18C81.8113 25.4787 81.1953 23.8507 80.55 22.296C79.9047 20.712 79.3033 19.2747 78.746 17.984C78.5407 17.5147 78.262 17.0013 77.91 16.444C77.5873 15.8867 77.1767 15.608 76.678 15.608C76.2967 15.608 75.9007 15.8133 75.49 16.224C75.1087 16.6347 74.8447 17.5293 74.698 18.908L72.234 18.556C72.2927 17.9107 72.4393 17.192 72.674 16.4C72.938 15.608 73.3193 14.8453 73.818 14.112C74.346 13.3493 75.006 12.7333 75.798 12.264C76.6193 11.7653 77.6167 11.516 78.79 11.516C79.758 11.516 80.5793 11.7507 81.254 12.22C81.958 12.66 82.5447 13.232 83.014 13.936C83.5127 14.64 83.9087 15.3587 84.202 16.092C84.6127 17.0893 85.1113 18.38 85.698 19.964C86.2847 21.548 86.842 23.2787 87.37 25.156C87.9273 27.004 88.3673 28.8813 88.69 30.788H88.734C89.6433 28.764 90.3327 26.8427 90.802 25.024C91.3007 23.2053 91.6087 21.5627 91.726 20.096C91.7553 19.7733 91.7553 19.2747 91.726 18.6C91.6967 17.896 91.5207 17.368 91.198 17.016C91.0807 17.0453 90.978 17.06 90.89 17.06C90.802 17.06 90.6993 17.06 90.582 17.06C89.8487 17.06 89.218 16.8107 88.69 16.312C88.162 15.8133 87.898 15.212 87.898 14.508C87.898 13.4813 88.2207 12.7333 88.866 12.264C89.5113 11.7653 90.2007 11.516 90.934 11.516C92.0193 11.516 92.8847 11.824 93.53 12.44C94.2047 13.056 94.6887 13.8333 94.982 14.772C95.2753 15.7107 95.422 16.6787 95.422 17.676C95.422 18.9373 95.2167 20.4627 94.806 22.252C94.3953 24.0413 93.8087 25.948 93.046 27.972C92.3127 29.9667 91.4473 31.9467 90.45 33.912C89.3353 36.0533 88.1033 38.0333 86.754 39.852C85.4047 41.7 83.982 43.1667 82.486 44.252C80.99 45.3667 79.4793 45.924 77.954 45.924Z" fill="#E23125"/>
</svg>
