<svg width="93" height="75" viewBox="0 0 93 75" fill="none" xmlns="http://www.w3.org/2000/svg">
<path fill-rule="evenodd" clip-rule="evenodd" d="M91.0567 7.84983C92.9067 6.19031 93.0612 3.34526 91.4017 1.49522C89.7421 -0.354814 86.8971 -0.50926 85.0471 1.15026C83.197 2.80977 83.0426 5.65483 84.7021 7.50486C86.3616 9.3549 89.2067 9.50934 91.0567 7.84983ZM80.6973 10.1453V28.1453C80.6973 28.6976 80.2495 29.1453 79.6973 29.1453C79.145 29.1453 78.6973 28.6976 78.6973 28.1453V12.8658C67.8457 20.551 64.1686 27.6583 58.7044 38.2198L58.7043 38.2199L58.7042 38.2201C56.9435 41.6233 54.9972 45.3852 52.5655 49.6407C39.3607 72.749 14.2579 74.5622 1.69212 74.6419C1.13985 74.6454 0.697266 74.1973 0.697266 73.645C0.697266 73.0927 1.14033 72.6454 1.6926 72.6418C14.2055 72.5598 38.2172 70.719 50.829 48.6484C53.1668 44.5573 55.0662 40.8827 56.8068 37.5155L56.8068 37.5155C62.1251 27.2268 65.9599 19.8082 76.284 12.1453L62.6973 12.1453C62.145 12.1453 61.6973 11.6976 61.6973 11.1453C61.6973 10.593 62.145 10.1453 62.6973 10.1453H80.6973Z" fill="#E23125"/>
</svg>
