<svg width="57" height="58" viewBox="0 0 57 58" fill="none" xmlns="http://www.w3.org/2000/svg">
<path d="M19.2641 27.4C17.8416 27.4 16.5554 27.1564 15.4057 26.6692C14.2754 26.1821 13.379 25.4805 12.7164 24.5646C12.0539 23.6487 11.7128 22.5672 11.6934 21.32H16.078C16.1364 22.1579 16.4287 22.8205 16.9549 23.3077C17.5005 23.7949 18.2411 24.0385 19.1764 24.0385C20.1313 24.0385 20.8816 23.8144 21.4272 23.3662C21.9728 22.8985 22.2457 22.2944 22.2457 21.5538C22.2457 20.9497 22.0605 20.4528 21.6903 20.0631C21.32 19.6733 20.8523 19.3713 20.2872 19.1569C19.7416 18.9231 18.9816 18.6697 18.0072 18.3969C16.6821 18.0072 15.6005 17.6272 14.7626 17.2569C13.9441 16.8672 13.2328 16.2923 12.6287 15.5323C12.0441 14.7528 11.7518 13.72 11.7518 12.4338C11.7518 11.2256 12.0539 10.1733 12.658 9.27692C13.2621 8.38051 14.1098 7.69846 15.2011 7.23077C16.2923 6.74359 17.5395 6.5 18.9426 6.5C21.0472 6.5 22.7523 7.01641 24.058 8.04923C25.3831 9.06256 26.1139 10.4851 26.2503 12.3169H21.7487C21.7098 11.6154 21.4077 11.0405 20.8426 10.5923C20.297 10.1246 19.5662 9.89077 18.6503 9.89077C17.8513 9.89077 17.2082 10.0954 16.7211 10.5046C16.2534 10.9138 16.0195 11.5082 16.0195 12.2877C16.0195 12.8333 16.1949 13.2913 16.5457 13.6615C16.9159 14.0123 17.3641 14.3046 17.8903 14.5385C18.4359 14.7528 19.1959 15.0062 20.1703 15.2985C21.4954 15.6882 22.5769 16.0779 23.4149 16.4677C24.2528 16.8574 24.9739 17.4421 25.578 18.2215C26.1821 19.001 26.4841 20.0241 26.4841 21.2908C26.4841 22.3821 26.2016 23.3954 25.6364 24.3308C25.0713 25.2662 24.2431 26.0164 23.1518 26.5815C22.0605 27.1272 20.7646 27.4 19.2641 27.4Z" fill="#E23125"/>
<path d="M33.6021 6.79297V19.4207C33.6021 20.8043 33.9626 21.8663 34.6836 22.6068C35.4046 23.3278 36.418 23.6884 37.7236 23.6884C39.0487 23.6884 40.0718 23.3278 40.7928 22.6068C41.5139 21.8663 41.8744 20.8043 41.8744 19.4207V6.79297H45.9959V19.3914C45.9959 21.1258 45.6159 22.5971 44.8559 23.8053C44.1154 24.994 43.1118 25.8904 41.8452 26.4945C40.598 27.0986 39.2046 27.4007 37.6651 27.4007C36.1451 27.4007 34.7616 27.0986 33.5144 26.4945C32.2867 25.8904 31.3123 24.994 30.5913 23.8053C29.8703 22.5971 29.5098 21.1258 29.5098 19.3914V6.79297H33.6021Z" fill="#E23125"/>
<path d="M38.3218 29.8852C39.7444 29.8852 41.0305 30.1287 42.1803 30.6159C43.3105 31.1031 44.2069 31.8046 44.8695 32.7205C45.5321 33.6364 45.8731 34.718 45.8926 35.9652H41.508C41.4495 35.1272 41.1572 34.4646 40.631 33.9775C40.0854 33.4903 39.3449 33.2467 38.4095 33.2467C37.4546 33.2467 36.7044 33.4708 36.1587 33.919C35.6131 34.3867 35.3403 34.9908 35.3403 35.7313C35.3403 36.3354 35.5254 36.8323 35.8957 37.2221C36.2659 37.6118 36.7336 37.9139 37.2987 38.1282C37.8444 38.3621 38.6044 38.6154 39.5787 38.8882C40.9039 39.278 41.9854 39.658 42.8233 40.0282C43.6418 40.418 44.3531 40.9928 44.9572 41.7528C45.5418 42.5323 45.8341 43.5652 45.8341 44.8513C45.8341 46.0595 45.5321 47.1118 44.928 48.0082C44.3239 48.9046 43.4762 49.5867 42.3849 50.0544C41.2936 50.5416 40.0464 50.7852 38.6433 50.7852C36.5387 50.7852 34.8336 50.2687 33.528 49.2359C32.2028 48.2226 31.4721 46.8 31.3357 44.9682H35.8372C35.8762 45.6698 36.1782 46.2446 36.7433 46.6928C37.289 47.1605 38.0198 47.3944 38.9357 47.3944C39.7346 47.3944 40.3777 47.1898 40.8649 46.7805C41.3326 46.3713 41.5664 45.777 41.5664 44.9975C41.5664 44.4518 41.391 43.9939 41.0403 43.6236C40.67 43.2728 40.2218 42.9805 39.6957 42.7467C39.15 42.5323 38.39 42.279 37.4157 41.9867C36.0905 41.597 35.009 41.2072 34.171 40.8175C33.3331 40.4277 32.6121 39.8431 32.008 39.0636C31.4039 38.2841 31.1018 37.2611 31.1018 35.9944C31.1018 34.9031 31.3844 33.8898 31.9495 32.9544C32.5146 32.019 33.3428 31.2687 34.4341 30.7036C35.5254 30.158 36.8213 29.8852 38.3218 29.8852Z" fill="#E23125"/>
<path d="M24.0854 50.7852V38.1575C24.0854 36.7739 23.7249 35.7118 23.0039 34.9713C22.2829 34.2503 21.2695 33.8898 19.9639 33.8898C18.6388 33.8898 17.6157 34.2503 16.8947 34.9713C16.1736 35.7118 15.8131 36.7739 15.8131 38.1575V50.7852H11.6916V38.1867C11.6916 36.4523 12.0716 34.9811 12.8316 33.7728C13.5721 32.5841 14.5757 31.6877 15.8423 31.0836C17.0895 30.4795 18.4829 30.1775 20.0224 30.1775C21.5424 30.1775 22.9259 30.4795 24.1731 31.0836C25.4008 31.6877 26.3752 32.5841 27.0962 33.7728C27.8172 34.9811 28.1777 36.4523 28.1777 38.1867V50.7852H24.0854Z" fill="#E23125"/>
<rect x="1" y="1.5" width="55" height="55" stroke="#E23125" stroke-width="2"/>
</svg>
