<svg width="84" height="80" viewBox="0 0 84 80" fill="none" xmlns="http://www.w3.org/2000/svg">
<path fill-rule="evenodd" clip-rule="evenodd" d="M2.76041 31.0088L26.5182 2.71402C27.2285 1.8681 28.49 1.75814 29.3359 2.46842L80.7449 45.634C81.5908 46.3443 81.7008 47.6059 80.9905 48.4518L57.2327 76.7466C56.5224 77.5925 55.2609 77.7025 54.415 76.9922L3.00601 33.8266C2.16009 33.1163 2.05013 31.8547 2.76041 31.0088ZM1.71994 35.3582C0.0281022 33.9377 -0.191815 31.4146 1.22874 29.7228L24.9865 1.42795C26.4071 -0.263889 28.9302 -0.483807 30.622 0.936747L82.031 44.1024C83.7228 45.5229 83.9427 48.046 82.5222 49.7378L58.7644 78.0327C57.3438 79.7245 54.8208 79.9444 53.1289 78.5239L1.71994 35.3582ZM63.6684 58.559C65.5184 56.8995 65.6729 54.0544 64.0133 52.2044C62.3538 50.3543 59.5088 50.1999 57.6587 51.8594C55.8087 53.5189 55.6542 56.364 57.3138 58.214C58.9733 60.064 61.8183 60.2185 63.6684 58.559Z" fill="#E23125"/>
</svg>
