<svg width="165" height="56" viewBox="0 0 165 56" fill="none" xmlns="http://www.w3.org/2000/svg">
<path d="M2.73238 22H0.432383V20H7.23238V22H4.93238V34H2.73238V22ZM8.29754 20H10.4975V25.7H12.8575V20H15.0575V34H12.8575V27.7H10.4975V34H8.29754V20ZM16.696 20H22.696V22H18.896V25.7H21.916V27.7H18.896V32H22.696V34H16.696V20Z" fill="#E23125"/>
<path d="M29.4319 14.4H36.9679L40.3279 38.448H40.4239L43.7839 14.4H51.3199V48H46.3279V22.56H46.2319L42.3919 48H37.9759L34.1359 22.56H34.0399V48H29.4319V14.4ZM62.94 48.48C60.38 48.48 58.428 47.76 57.084 46.32C55.74 44.848 55.068 42.752 55.068 40.032V14.4H60.348V40.416C60.348 41.568 60.572 42.4 61.02 42.912C61.5 43.424 62.172 43.68 63.036 43.68C63.9 43.68 64.556 43.424 65.004 42.912C65.484 42.4 65.724 41.568 65.724 40.416V14.4H70.812V40.032C70.812 42.752 70.14 44.848 68.796 46.32C67.452 47.76 65.5 48.48 62.94 48.48ZM81.4365 48.48C78.8765 48.48 76.9405 47.76 75.6285 46.32C74.3165 44.848 73.6605 42.752 73.6605 40.032V38.112H78.6525V40.416C78.6525 42.592 79.5645 43.68 81.3885 43.68C82.2845 43.68 82.9565 43.424 83.4045 42.912C83.8845 42.368 84.1245 41.504 84.1245 40.32C84.1245 38.912 83.8045 37.68 83.1645 36.624C82.5245 35.536 81.3405 34.24 79.6125 32.736C77.4365 30.816 75.9165 29.088 75.0525 27.552C74.1885 25.984 73.7565 24.224 73.7565 22.272C73.7565 19.616 74.4285 17.568 75.7725 16.128C77.1165 14.656 79.0685 13.92 81.6285 13.92C84.1565 13.92 86.0605 14.656 87.3405 16.128C88.6525 17.568 89.3085 19.648 89.3085 22.368V23.76H84.3165V22.032C84.3165 20.88 84.0925 20.048 83.6445 19.536C83.1965 18.992 82.5405 18.72 81.6765 18.72C79.9165 18.72 79.0365 19.792 79.0365 21.936C79.0365 23.152 79.3565 24.288 79.9965 25.344C80.6685 26.4 81.8685 27.68 83.5965 29.184C85.8045 31.104 87.3245 32.848 88.1565 34.416C88.9885 35.984 89.4045 37.824 89.4045 39.936C89.4045 42.688 88.7165 44.8 87.3405 46.272C85.9965 47.744 84.0285 48.48 81.4365 48.48ZM96.5599 19.2H91.0399V14.4H107.36V19.2H101.84V48H96.5599V19.2ZM111.793 14.4H118.945L124.417 48H119.137L118.177 41.328V41.424H112.177L111.217 48H106.321L111.793 14.4ZM117.553 36.864L115.201 20.256H115.105L112.801 36.864H117.553ZM126.979 14.4H134.803C137.523 14.4 139.507 15.04 140.755 16.32C142.003 17.568 142.627 19.504 142.627 22.128V24.192C142.627 27.68 141.475 29.888 139.171 30.816V30.912C140.451 31.296 141.347 32.08 141.859 33.264C142.403 34.448 142.675 36.032 142.675 38.016V43.92C142.675 44.88 142.707 45.664 142.771 46.272C142.835 46.848 142.995 47.424 143.251 48H137.875C137.683 47.456 137.555 46.944 137.491 46.464C137.427 45.984 137.395 45.12 137.395 43.872V37.728C137.395 36.192 137.139 35.12 136.627 34.512C136.147 33.904 135.299 33.6 134.083 33.6H132.259V48H126.979V14.4ZM134.179 28.8C135.235 28.8 136.019 28.528 136.531 27.984C137.075 27.44 137.347 26.528 137.347 25.248V22.656C137.347 21.44 137.123 20.56 136.675 20.016C136.259 19.472 135.587 19.2 134.659 19.2H132.259V28.8H134.179ZM146.338 14.4H154.402C157.026 14.4 158.994 15.104 160.306 16.512C161.618 17.92 162.274 19.984 162.274 22.704V39.696C162.274 42.416 161.618 44.48 160.306 45.888C158.994 47.296 157.026 48 154.402 48H146.338V14.4ZM154.306 43.2C155.17 43.2 155.826 42.944 156.274 42.432C156.754 41.92 156.994 41.088 156.994 39.936V22.464C156.994 21.312 156.754 20.48 156.274 19.968C155.826 19.456 155.17 19.2 154.306 19.2H151.618V43.2H154.306Z" fill="#E23125"/>
</svg>
