<svg width="29" height="23" viewBox="0 0 29 23" fill="none" xmlns="http://www.w3.org/2000/svg">
<path d="M28.2451 0.948666C27.1219 1.57596 25.9032 2.04643 24.5889 2.29286C23.5374 1.21751 22.0319 0.54541 20.383 0.54541C17.2048 0.54541 14.6239 3.03217 14.6239 6.10142C14.6239 6.52708 14.6717 6.95275 14.7673 7.35601C9.96408 7.13197 5.71047 4.91405 2.86676 1.55356C2.36493 2.38248 2.07816 3.32341 2.07816 4.35396C2.07816 6.28064 3.10573 7.9833 4.63512 8.96904C3.67925 8.94664 2.79507 8.7002 2.03038 8.27453V8.34174C2.03038 11.0301 4.0138 13.2705 6.66634 13.7857C6.1884 13.9202 5.66268 13.9874 5.13695 13.9874C4.7546 13.9874 4.39615 13.965 4.0616 13.8978C4.80239 16.0933 6.9292 17.7063 9.46225 17.7511C7.47883 19.2297 4.99357 20.1259 2.29324 20.1259C1.8392 20.1259 1.36126 20.1035 0.907227 20.0587C3.46417 21.6269 6.49906 22.5454 9.74901 22.5454C20.3592 22.5454 26.1661 14.0994 26.1661 6.77351C26.1661 6.52708 26.1661 6.28065 26.1422 6.05662C27.2653 5.27251 28.2451 4.30915 29.0098 3.18899C27.9822 3.63706 26.8591 3.9283 25.6881 4.06272C26.883 3.34582 27.8149 2.24805 28.2451 0.948666Z" fill="#E23125"/>
</svg>
