<svg width="429" height="620" viewBox="0 0 429 620" fill="none" xmlns="http://www.w3.org/2000/svg">
<rect width="429" height="620" fill="#E23125"/>
<path d="M191.692 301.438H189.204C189.158 301.116 189.066 300.83 188.925 300.58C188.785 300.326 188.605 300.11 188.386 299.932C188.166 299.754 187.912 299.617 187.624 299.523C187.34 299.428 187.031 299.381 186.698 299.381C186.096 299.381 185.571 299.53 185.124 299.83C184.677 300.125 184.331 300.557 184.085 301.125C183.838 301.689 183.715 302.375 183.715 303.182C183.715 304.011 183.838 304.708 184.085 305.273C184.335 305.837 184.683 306.263 185.13 306.551C185.577 306.839 186.094 306.983 186.681 306.983C187.011 306.983 187.316 306.939 187.596 306.852C187.88 306.765 188.132 306.638 188.352 306.472C188.571 306.301 188.753 306.095 188.897 305.852C189.045 305.61 189.147 305.333 189.204 305.023L191.692 305.034C191.628 305.568 191.467 306.083 191.21 306.58C190.956 307.072 190.613 307.513 190.181 307.903C189.753 308.29 189.242 308.597 188.647 308.824C188.056 309.047 187.388 309.159 186.641 309.159C185.603 309.159 184.675 308.924 183.857 308.455C183.043 307.985 182.399 307.305 181.925 306.415C181.456 305.525 181.221 304.447 181.221 303.182C181.221 301.913 181.46 300.833 181.937 299.943C182.414 299.053 183.062 298.375 183.88 297.909C184.698 297.439 185.619 297.205 186.641 297.205C187.316 297.205 187.941 297.299 188.516 297.489C189.096 297.678 189.609 297.955 190.056 298.318C190.503 298.678 190.867 299.119 191.147 299.642C191.431 300.165 191.613 300.763 191.692 301.438ZM201.457 309V297.364H209.298V299.392H203.917V302.165H208.894V304.193H203.917V306.972H209.32V309H201.457ZM219.254 309V297.364H221.714V306.972H226.702V309H219.254ZM238.634 309H235.998L240.015 297.364H243.185L247.197 309H244.56L241.646 300.023H241.555L238.634 309ZM238.469 304.426H244.697V306.347H238.469V304.426Z" fill="#F9E0E2" fill-opacity="0.8"/>
</svg>
